<svg xmlns="http://www.w3.org/2000/svg" viewBox="0 0 1000 1300">
  <rect x="0" y="0" width="1000" height="1300" fill="#ffffff"/>

  <!-- v2.0.1 redesign: real heart / lung / body silhouettes replacing the previous
       ellipse-lungs + rounded-rect-grid-heart geometric placeholder. Two clearly
       separated loops share one heart: a SMALL loop up to the lungs (pulmonary
       circuit) and a LARGE loop down to the body (systemic circuit) -- this is the
       actual pedagogical point of this asset (the route/topology), so schematic
       abstraction of the heart/lung/body shapes themselves is appropriate here
       (SVG-PRO), unlike assets where organ SHAPE recognition is the point. -->

  <!-- lungs (top). Concave inner (mediastinal) border, rounded outer (costal) border,
       tapered apex/base -- not a plain ellipse. -->
  <g fill="#e8b3ac" stroke="#8a4a44" stroke-width="6" stroke-linejoin="round">
    <!-- left lung: tapered apex, rounded costal (outer) border, concave mediastinal
         (inner) border with a cardiac-notch-like dip so it reads as a lung, not an oval -->
    <path d="M 452,96 C 400,50 300,40 216,66 C 130,92 92,158 96,214
             C 100,276 138,326 206,344 C 262,352 310,332 344,296
             C 320,270 300,236 300,196 C 300,168 340,140 400,150
             C 424,134 442,116 452,96 Z"/>
    <path d="M 548,96 C 600,50 700,40 784,66 C 870,92 908,158 904,214
             C 900,276 862,326 794,344 C 738,352 690,332 656,296
             C 680,270 700,236 700,196 C 700,168 660,140 600,150
             C 576,134 558,116 548,96 Z"/>
  </g>
  <!-- trachea + main bronchi, sitting in the gap between the lungs -->
  <g fill="none" stroke="#9aa7ad" stroke-width="26" stroke-linecap="round" stroke-linejoin="round">
    <path d="M 500,40 L 500,200"/>
    <path d="M 500,200 L 430,300"/>
    <path d="M 500,200 L 570,300"/>
  </g>

  <!-- heart (middle). One outline, filled red as the base (oxygenated/left-heart
       side), with a second path tracing exactly the left half re-filled blue
       (deoxygenated/right-heart side) so the septum seam is a single clean edge. -->
  <path d="M 500,520 C 480,480 430,450 400,470 C 350,500 320,560 335,620
           C 350,700 400,760 470,820 C 540,760 610,700 665,620
           C 680,560 650,500 600,470 C 570,450 520,480 500,520 Z"
        fill="#c9536a" stroke="#7a3040" stroke-width="7" stroke-linejoin="round"/>
  <path d="M 500,520 C 480,480 430,450 400,470 C 350,500 320,560 335,620
           C 350,700 400,760 470,820 L 500,520 Z"
        fill="#4a6fa5" stroke="#233a5c" stroke-width="7" stroke-linejoin="round"/>

  <!-- ===================== PULMONARY CIRCUIT (small loop, heart <-> lungs) ===================== -->
  <!-- pulmonary artery: RV -> left lung (deoxygenated, blue) -->
  <path d="M 372,660 C 340,600 330,480 350,400 C 362,352 388,320 418,308
           L 434,332 C 410,350 392,378 384,412 C 368,486 378,590 406,646 Z"
        fill="#4a6fa5" stroke="#233a5c" stroke-width="5" stroke-linejoin="round"/>
  <!-- pulmonary vein: right lung -> LA (oxygenated, red) -->
  <path d="M 582,308 C 612,320 638,352 650,400 C 670,478 662,590 628,656
           L 596,644 C 626,588 634,486 618,412 C 610,378 592,350 568,332 Z"
        fill="#c9536a" stroke="#7a3040" stroke-width="5" stroke-linejoin="round"/>

  <!-- ===================== SYSTEMIC CIRCUIT (large loop, heart <-> body) ===================== -->
  <!-- aorta: LV -> body (oxygenated, red) -->
  <path d="M 606,672 C 660,700 700,760 712,840 C 722,900 716,940 700,970
           L 660,958 C 674,928 678,896 670,846 C 660,776 628,724 582,700 Z"
        fill="#c9536a" stroke="#7a3040" stroke-width="5" stroke-linejoin="round"/>
  <!-- vena cava: body -> RA (deoxygenated, blue) -->
  <path d="M 300,970 C 284,940 278,900 288,840 C 300,760 340,700 394,672
           L 418,700 C 372,724 340,776 330,846 C 322,896 326,928 340,958 Z"
        fill="#4a6fa5" stroke="#233a5c" stroke-width="5" stroke-linejoin="round"/>

  <!-- body / systemic capillary bed (bottom). Rounded torso silhouette with a fine
       branching mesh inside standing in for the capillary bed -- not a flat box. -->
  <path d="M 360,970 C 300,970 264,1010 260,1070 L 260,1170
           C 260,1220 300,1260 360,1260 L 640,1260
           C 700,1260 740,1220 740,1170 L 740,1070
           C 736,1010 700,970 640,970 Z"
        fill="#f2d9b0" stroke="#a68a3a" stroke-width="6" stroke-linejoin="round"/>
  <g fill="none" stroke="#c98f6a" stroke-width="3.5" stroke-linecap="round" opacity="0.85">
    <path d="M 330,1030 L 380,1050 L 360,1090 L 420,1080 L 400,1130 L 460,1140"/>
    <path d="M 380,1050 L 400,1010"/>
    <path d="M 420,1080 L 440,1040"/>
    <path d="M 500,1030 L 540,1060 L 520,1100 L 580,1090 L 560,1140 L 620,1150"/>
    <path d="M 540,1060 L 560,1020"/>
    <path d="M 520,1100 L 490,1130"/>
    <path d="M 620,1050 L 660,1080 L 640,1120 L 690,1110"/>
    <path d="M 300,1140 L 340,1160 L 320,1200 L 380,1190"/>
  </g>

  <!-- legend-free geometric key: red = oxygenated flow, blue = deoxygenated flow -->
  <circle cx="60" cy="1230" r="16" fill="#c9536a" stroke="#7a3040" stroke-width="3"/>
  <circle cx="60" cy="1275" r="16" fill="#4a6fa5" stroke="#233a5c" stroke-width="3"/>
</svg>
